<?xml version="1.0" encoding="UTF-8" standalone="no"?>
<!-- Created with Inkscape (http://www.inkscape.org/) -->

<svg
   width="183.40417mm"
   height="183.40419mm"
   viewBox="0 0 183.40417 183.40419"
   version="1.1"
   id="svg1"
   xml:space="preserve"
   xmlns="http://www.w3.org/2000/svg"
   xmlns:svg="http://www.w3.org/2000/svg"><defs
     id="defs1"><filter
       style="color-interpolation-filters:sRGB"
       id="filter998"
       x="-0.039257555"
       y="-0.039257555"
       width="1.0948724"
       height="1.0948724"><feColorMatrix
         values="0 0 0 0 0 0 0 0 0 0 0 0 0 0 0 0.21 0.72 0.07 0 0 "
         result="result1"
         id="feColorMatrix993" /><feColorMatrix
         values="1 0 0 0 0 0 1 0 0 0 0 0 1 0 0 0 0 0 2 0 "
         result="result9"
         id="feColorMatrix994" /><feComposite
         in2="result9"
         in="SourceGraphic"
         operator="in"
         result="result4"
         id="feComposite994" /><feFlood
         result="result2"
         flood-color="rgb(0,0,0)"
         id="feFlood994" /><feComposite
         in2="result9"
         operator="in"
         result="result10"
         id="feComposite995" /><feComposite
         in2="result4"
         operator="atop"
         id="feComposite996" /><feGaussianBlur
         stdDeviation="3"
         result="result8"
         id="feGaussianBlur996" /><feOffset
         dx="3"
         dy="3"
         result="result3"
         in="result8"
         id="feOffset996" /><feFlood
         flood-opacity="1"
         flood-color="rgb(219,173,62)"
         result="result5"
         id="feFlood996" /><feMerge
         result="result6"
         id="feMerge998"><feMergeNode
           in="result5"
           id="feMergeNode996" /><feMergeNode
           in="result3"
           id="feMergeNode997" /><feMergeNode
           in="result4"
           id="feMergeNode998" /></feMerge><feComposite
         in2="SourceGraphic"
         operator="in"
         result="result7"
         id="feComposite998" /></filter></defs><g
     id="layer1"
     transform="translate(-16.447587,-56.797901)"><g
       id="g993"
       style="filter:url(#filter998)"><rect
         style="fill:none;fill-opacity:1;stroke:none;stroke-width:0.941645;stroke-opacity:0"
         id="rect1"
         width="183.40419"
         height="183.40419"
         x="16.447588"
         y="56.797901" /><path
         id="path991"
         style="mix-blend-mode:normal;fill:#335c67;fill-opacity:1;fill-rule:nonzero;stroke:#335c67;stroke-width:1;stroke-dasharray:none;stroke-opacity:1"
         d="m 69.789478,107.69494 v 3.18585 3.1905 l -25.394832,0.29507 -25.394316,0.29508 5.643583,5.64513 c 11.330683,11.33607 24.868212,17.76889 40.87089,19.42569 10.62909,1.0993 12.505572,1.83335 16.355074,6.41046 7.227496,8.58933 2.313782,23.26259 -8.468216,25.28321 -3.574714,0.67009 -3.613733,0.74038 -3.613733,6.43888 l 0.001,-0.005 v 5.76244 h 19.03143 14.590842 a 17.69463,17.69463 0 0 1 17.35139,-14.42547 17.69463,17.69463 0 0 1 17.3669,14.31334 c 2.8447,0.10581 7.18637,0.10955 13.98985,0.10955 h 19.24637 v -6.41563 c 0,-1.15406 -0.019,-1.90802 -0.0403,-2.68562 A 30.385323,30.385323 0 0 1 145.65669,144.528 30.385323,30.385323 0 0 1 171.36778,114.52776 v -0.54002 -6.29263 h -50.78915 z" /><ellipse
         style="fill:#000000;fill-opacity:1;fill-rule:nonzero;stroke:#000000;stroke-width:0.846563;stroke-dasharray:none;stroke-opacity:1"
         id="path992"
         cx="174.36313"
         cy="144.65681"
         rx="23.325136"
         ry="24.3584" /><ellipse
         style="fill:#000000;fill-opacity:1;fill-rule:nonzero;stroke:#000000;stroke-width:0.524477;stroke-dasharray:none;stroke-opacity:1"
         id="path992-4"
         cx="120.78269"
         cy="187.88567"
         rx="14.450773"
         ry="15.090918" /></g></g></svg>
